<svg width="209" height="67" viewBox="0 0 209 67" fill="none" xmlns="http://www.w3.org/2000/svg">
<path fill-rule="evenodd" clip-rule="evenodd" d="M14.5441 11.7524C13.9583 12.3382 13.9583 13.281 13.9583 15.1667V54.625C13.9583 56.5106 13.9583 57.4534 14.5441 58.0392C15.1299 58.625 16.0727 58.625 17.9583 58.625H49.0416C50.9273 58.625 51.8701 58.625 52.4559 58.0392C53.0416 57.4534 53.0416 56.5106 53.0416 54.625V15.1667C53.0416 13.281 53.0416 12.3382 52.4559 11.7524C51.8701 11.1667 50.9273 11.1667 49.0416 11.1667H17.9583C16.0727 11.1667 15.1299 11.1667 14.5441 11.7524ZM25.125 24.125C24.5727 24.125 24.125 24.5727 24.125 25.125C24.125 25.6773 24.5727 26.125 25.125 26.125H41.875C42.4273 26.125 42.875 25.6773 42.875 25.125C42.875 24.5727 42.4273 24.125 41.875 24.125H25.125ZM25.125 35.2917C24.5727 35.2917 24.125 35.7394 24.125 36.2917C24.125 36.8439 24.5727 37.2917 25.125 37.2917H41.875C42.4273 37.2917 42.875 36.8439 42.875 36.2917C42.875 35.7394 42.4273 35.2917 41.875 35.2917H25.125ZM25.125 46.4583C24.5727 46.4583 24.125 46.906 24.125 47.4583C24.125 48.0106 24.5727 48.4583 25.125 48.4583H36.2916C36.8439 48.4583 37.2916 48.0106 37.2916 47.4583C37.2916 46.906 36.8439 46.4583 36.2916 46.4583H25.125Z" fill="#31B380"/>
<path d="M73.32 29.14C72.2933 29.14 71.3733 28.9733 70.56 28.64C69.7467 28.3067 69.0933 27.8133 68.6 27.16C68.12 26.5067 67.8667 25.72 67.84 24.8H71.48C71.5333 25.32 71.7133 25.72 72.02 26C72.3267 26.2667 72.7267 26.4 73.22 26.4C73.7267 26.4 74.1267 26.2867 74.42 26.06C74.7133 25.82 74.86 25.4933 74.86 25.08C74.86 24.7333 74.74 24.4467 74.5 24.22C74.2733 23.9933 73.9867 23.8067 73.64 23.66C73.3067 23.5133 72.8267 23.3467 72.2 23.16C71.2933 22.88 70.5533 22.6 69.98 22.32C69.4067 22.04 68.9133 21.6267 68.5 21.08C68.0867 20.5333 67.88 19.82 67.88 18.94C67.88 17.6333 68.3533 16.6133 69.3 15.88C70.2467 15.1333 71.48 14.76 73 14.76C74.5467 14.76 75.7933 15.1333 76.74 15.88C77.6867 16.6133 78.1933 17.64 78.26 18.96H74.56C74.5333 18.5067 74.3667 18.1533 74.06 17.9C73.7533 17.6333 73.36 17.5 72.88 17.5C72.4667 17.5 72.1333 17.6133 71.88 17.84C71.6267 18.0533 71.5 18.3667 71.5 18.78C71.5 19.2333 71.7133 19.5867 72.14 19.84C72.5667 20.0933 73.2333 20.3667 74.14 20.66C75.0467 20.9667 75.78 21.26 76.34 21.54C76.9133 21.82 77.4067 22.2267 77.82 22.76C78.2333 23.2933 78.44 23.98 78.44 24.82C78.44 25.62 78.2333 26.3467 77.82 27C77.42 27.6533 76.8333 28.1733 76.06 28.56C75.2867 28.9467 74.3733 29.14 73.32 29.14ZM91.0647 23.24C91.0647 23.56 91.0447 23.8933 91.0047 24.24H83.2647C83.318 24.9333 83.538 25.4667 83.9247 25.84C84.3247 26.2 84.8114 26.38 85.3847 26.38C86.238 26.38 86.8314 26.02 87.1647 25.3H90.8047C90.618 26.0333 90.278 26.6933 89.7847 27.28C89.3047 27.8667 88.698 28.3267 87.9647 28.66C87.2314 28.9933 86.4114 29.16 85.5047 29.16C84.4114 29.16 83.438 28.9267 82.5847 28.46C81.7314 27.9933 81.0647 27.3267 80.5847 26.46C80.1047 25.5933 79.8647 24.58 79.8647 23.42C79.8647 22.26 80.098 21.2467 80.5647 20.38C81.0447 19.5133 81.7114 18.8467 82.5647 18.38C83.418 17.9133 84.398 17.68 85.5047 17.68C86.5847 17.68 87.5447 17.9067 88.3847 18.36C89.2247 18.8133 89.878 19.46 90.3447 20.3C90.8247 21.14 91.0647 22.12 91.0647 23.24ZM87.5647 22.34C87.5647 21.7533 87.3647 21.2867 86.9647 20.94C86.5647 20.5933 86.0647 20.42 85.4647 20.42C84.8914 20.42 84.4047 20.5867 84.0047 20.92C83.618 21.2533 83.378 21.7267 83.2847 22.34H87.5647ZM108.889 17.84L105.869 29H102.089L100.329 21.76L98.5089 29H94.7489L91.7089 17.84H95.1289L96.7089 25.82L98.5889 17.84H102.209L104.109 25.78L105.669 17.84H108.889ZM109.513 23.4C109.513 22.2533 109.726 21.2467 110.153 20.38C110.593 19.5133 111.186 18.8467 111.933 18.38C112.68 17.9133 113.513 17.68 114.433 17.68C115.22 17.68 115.906 17.84 116.493 18.16C117.093 18.48 117.553 18.9 117.873 19.42V17.84H121.293V29H117.873V27.42C117.54 27.94 117.073 28.36 116.473 28.68C115.886 29 115.2 29.16 114.413 29.16C113.506 29.16 112.68 28.9267 111.933 28.46C111.186 27.98 110.593 27.3067 110.153 26.44C109.726 25.56 109.513 24.5467 109.513 23.4ZM117.873 23.42C117.873 22.5667 117.633 21.8933 117.153 21.4C116.686 20.9067 116.113 20.66 115.433 20.66C114.753 20.66 114.173 20.9067 113.693 21.4C113.226 21.88 112.993 22.5467 112.993 23.4C112.993 24.2533 113.226 24.9333 113.693 25.44C114.173 25.9333 114.753 26.18 115.433 26.18C116.113 26.18 116.686 25.9333 117.153 25.44C117.633 24.9467 117.873 24.2733 117.873 23.42ZM137.326 19.4C137.072 18.9333 136.706 18.58 136.226 18.34C135.759 18.0867 135.206 17.96 134.566 17.96C133.459 17.96 132.572 18.3267 131.906 19.06C131.239 19.78 130.906 20.7467 130.906 21.96C130.906 23.2533 131.252 24.2667 131.946 25C132.652 25.72 133.619 26.08 134.846 26.08C135.686 26.08 136.392 25.8667 136.966 25.44C137.552 25.0133 137.979 24.4 138.246 23.6H133.906V21.08H141.346V24.26C141.092 25.1133 140.659 25.9067 140.046 26.64C139.446 27.3733 138.679 27.9667 137.746 28.42C136.812 28.8733 135.759 29.1 134.586 29.1C133.199 29.1 131.959 28.8 130.866 28.2C129.786 27.5867 128.939 26.74 128.326 25.66C127.726 24.58 127.426 23.3467 127.426 21.96C127.426 20.5733 127.726 19.34 128.326 18.26C128.939 17.1667 129.786 16.32 130.866 15.72C131.946 15.1067 133.179 14.8 134.566 14.8C136.246 14.8 137.659 15.2067 138.806 16.02C139.966 16.8333 140.732 17.96 141.106 19.4H137.326ZM153.76 23.24C153.76 23.56 153.74 23.8933 153.7 24.24H145.96C146.013 24.9333 146.233 25.4667 146.62 25.84C147.02 26.2 147.507 26.38 148.08 26.38C148.933 26.38 149.527 26.02 149.86 25.3H153.5C153.313 26.0333 152.973 26.6933 152.48 27.28C152 27.8667 151.393 28.3267 150.66 28.66C149.927 28.9933 149.107 29.16 148.2 29.16C147.107 29.16 146.133 28.9267 145.28 28.46C144.427 27.9933 143.76 27.3267 143.28 26.46C142.8 25.5933 142.56 24.58 142.56 23.42C142.56 22.26 142.793 21.2467 143.26 20.38C143.74 19.5133 144.407 18.8467 145.26 18.38C146.113 17.9133 147.093 17.68 148.2 17.68C149.28 17.68 150.24 17.9067 151.08 18.36C151.92 18.8133 152.573 19.46 153.04 20.3C153.52 21.14 153.76 22.12 153.76 23.24ZM150.26 22.34C150.26 21.7533 150.06 21.2867 149.66 20.94C149.26 20.5933 148.76 20.42 148.16 20.42C147.587 20.42 147.1 20.5867 146.7 20.92C146.313 21.2533 146.073 21.7267 145.98 22.34H150.26ZM154.884 23.4C154.884 22.2533 155.098 21.2467 155.524 20.38C155.964 19.5133 156.558 18.8467 157.304 18.38C158.051 17.9133 158.884 17.68 159.804 17.68C160.538 17.68 161.204 17.8333 161.804 18.14C162.418 18.4467 162.898 18.86 163.244 19.38V14.2H166.664V29H163.244V27.4C162.924 27.9333 162.464 28.36 161.864 28.68C161.278 29 160.591 29.16 159.804 29.16C158.884 29.16 158.051 28.9267 157.304 28.46C156.558 27.98 155.964 27.3067 155.524 26.44C155.098 25.56 154.884 24.5467 154.884 23.4ZM163.244 23.42C163.244 22.5667 163.004 21.8933 162.524 21.4C162.058 20.9067 161.484 20.66 160.804 20.66C160.124 20.66 159.544 20.9067 159.064 21.4C158.598 21.88 158.364 22.5467 158.364 23.4C158.364 24.2533 158.598 24.9333 159.064 25.44C159.544 25.9333 160.124 26.18 160.804 26.18C161.484 26.18 162.058 25.9333 162.524 25.44C163.004 24.9467 163.244 24.2733 163.244 23.42ZM180.158 17.84V29H176.738V27.48C176.392 27.9733 175.918 28.3733 175.318 28.68C174.732 28.9733 174.078 29.12 173.358 29.12C172.505 29.12 171.752 28.9333 171.098 28.56C170.445 28.1733 169.938 27.62 169.578 26.9C169.218 26.18 169.038 25.3333 169.038 24.36V17.84H172.438V23.9C172.438 24.6467 172.632 25.2267 173.018 25.64C173.405 26.0533 173.925 26.26 174.578 26.26C175.245 26.26 175.772 26.0533 176.158 25.64C176.545 25.2267 176.738 24.6467 176.738 23.9V17.84H180.158ZM189.415 17.72C190.722 17.72 191.762 18.1467 192.535 19C193.322 19.84 193.715 21 193.715 22.48V29H190.315V22.94C190.315 22.1933 190.122 21.6133 189.735 21.2C189.348 20.7867 188.828 20.58 188.175 20.58C187.522 20.58 187.002 20.7867 186.615 21.2C186.228 21.6133 186.035 22.1933 186.035 22.94V29H182.615V17.84H186.035V19.32C186.382 18.8267 186.848 18.44 187.435 18.16C188.022 17.8667 188.682 17.72 189.415 17.72ZM200.332 17.68C201.118 17.68 201.805 17.84 202.392 18.16C202.992 18.48 203.452 18.9 203.772 19.42V17.84H207.192V28.98C207.192 30.0067 206.985 30.9333 206.572 31.76C206.172 32.6 205.552 33.2667 204.712 33.76C203.885 34.2533 202.852 34.5 201.612 34.5C199.958 34.5 198.618 34.1067 197.592 33.32C196.565 32.5467 195.978 31.4933 195.832 30.16H199.212C199.318 30.5867 199.572 30.92 199.972 31.16C200.372 31.4133 200.865 31.54 201.452 31.54C202.158 31.54 202.718 31.3333 203.132 30.92C203.558 30.52 203.772 29.8733 203.772 28.98V27.4C203.438 27.92 202.978 28.3467 202.392 28.68C201.805 29 201.118 29.16 200.332 29.16C199.412 29.16 198.578 28.9267 197.832 28.46C197.085 27.98 196.492 27.3067 196.052 26.44C195.625 25.56 195.412 24.5467 195.412 23.4C195.412 22.2533 195.625 21.2467 196.052 20.38C196.492 19.5133 197.085 18.8467 197.832 18.38C198.578 17.9133 199.412 17.68 200.332 17.68ZM203.772 23.42C203.772 22.5667 203.532 21.8933 203.052 21.4C202.585 20.9067 202.012 20.66 201.332 20.66C200.652 20.66 200.072 20.9067 199.592 21.4C199.125 21.88 198.892 22.5467 198.892 23.4C198.892 24.2533 199.125 24.9333 199.592 25.44C200.072 25.9333 200.652 26.18 201.332 26.18C202.012 26.18 202.585 25.9333 203.052 25.44C203.532 24.9467 203.772 24.2733 203.772 23.42Z" fill="#3C3C3C"/>
<path d="M67.516 50.812C67.516 49.996 67.7 49.264 68.068 48.616C68.436 47.96 68.936 47.448 69.568 47.08C70.208 46.712 70.916 46.528 71.692 46.528C72.604 46.528 73.4 46.748 74.08 47.188C74.76 47.628 75.256 48.252 75.568 49.06H74.26C74.028 48.556 73.692 48.168 73.252 47.896C72.82 47.624 72.3 47.488 71.692 47.488C71.108 47.488 70.584 47.624 70.12 47.896C69.656 48.168 69.292 48.556 69.028 49.06C68.764 49.556 68.632 50.14 68.632 50.812C68.632 51.476 68.764 52.06 69.028 52.564C69.292 53.06 69.656 53.444 70.12 53.716C70.584 53.988 71.108 54.124 71.692 54.124C72.3 54.124 72.82 53.992 73.252 53.728C73.692 53.456 74.028 53.068 74.26 52.564H75.568C75.256 53.364 74.76 53.984 74.08 54.424C73.4 54.856 72.604 55.072 71.692 55.072C70.916 55.072 70.208 54.892 69.568 54.532C68.936 54.164 68.436 53.656 68.068 53.008C67.7 52.36 67.516 51.628 67.516 50.812ZM83.1935 51.46C83.1935 51.668 83.1815 51.888 83.1575 52.12H77.9015C77.9415 52.768 78.1615 53.276 78.5615 53.644C78.9695 54.004 79.4615 54.184 80.0375 54.184C80.5095 54.184 80.9015 54.076 81.2135 53.86C81.5335 53.636 81.7575 53.34 81.8855 52.972H83.0615C82.8855 53.604 82.5335 54.12 82.0055 54.52C81.4775 54.912 80.8215 55.108 80.0375 55.108C79.4135 55.108 78.8535 54.968 78.3575 54.688C77.8695 54.408 77.4855 54.012 77.2055 53.5C76.9255 52.98 76.7855 52.38 76.7855 51.7C76.7855 51.02 76.9215 50.424 77.1935 49.912C77.4655 49.4 77.8455 49.008 78.3335 48.736C78.8295 48.456 79.3975 48.316 80.0375 48.316C80.6615 48.316 81.2135 48.452 81.6935 48.724C82.1735 48.996 82.5415 49.372 82.7975 49.852C83.0615 50.324 83.1935 50.86 83.1935 51.46ZM82.0655 51.232C82.0655 50.816 81.9735 50.46 81.7895 50.164C81.6055 49.86 81.3535 49.632 81.0335 49.48C80.7215 49.32 80.3735 49.24 79.9895 49.24C79.4375 49.24 78.9655 49.416 78.5735 49.768C78.1895 50.12 77.9695 50.608 77.9135 51.232H82.0655ZM85.7269 49.636C85.9429 49.26 86.2629 48.948 86.6869 48.7C87.1189 48.444 87.6189 48.316 88.1869 48.316C88.7709 48.316 89.2989 48.456 89.7709 48.736C90.2509 49.016 90.6269 49.412 90.8989 49.924C91.1709 50.428 91.3069 51.016 91.3069 51.688C91.3069 52.352 91.1709 52.944 90.8989 53.464C90.6269 53.984 90.2509 54.388 89.7709 54.676C89.2989 54.964 88.7709 55.108 88.1869 55.108C87.6269 55.108 87.1309 54.984 86.6989 54.736C86.2749 54.48 85.9509 54.164 85.7269 53.788V58.12H84.6349V48.424H85.7269V49.636ZM90.1909 51.688C90.1909 51.192 90.0909 50.76 89.8909 50.392C89.6909 50.024 89.4189 49.744 89.0749 49.552C88.7389 49.36 88.3669 49.264 87.9589 49.264C87.5589 49.264 87.1869 49.364 86.8429 49.564C86.5069 49.756 86.2349 50.04 86.0269 50.416C85.8269 50.784 85.7269 51.212 85.7269 51.7C85.7269 52.196 85.8269 52.632 86.0269 53.008C86.2349 53.376 86.5069 53.66 86.8429 53.86C87.1869 54.052 87.5589 54.148 87.9589 54.148C88.3669 54.148 88.7389 54.052 89.0749 53.86C89.4189 53.66 89.6909 53.376 89.8909 53.008C90.0909 52.632 90.1909 52.192 90.1909 51.688ZM92.3363 51.688C92.3363 51.016 92.4723 50.428 92.7443 49.924C93.0163 49.412 93.3883 49.016 93.8603 48.736C94.3403 48.456 94.8723 48.316 95.4563 48.316C96.0323 48.316 96.5323 48.44 96.9563 48.688C97.3803 48.936 97.6963 49.248 97.9043 49.624V48.424H99.0083V55H97.9043V53.776C97.6883 54.16 97.3643 54.48 96.9323 54.736C96.5083 54.984 96.0123 55.108 95.4443 55.108C94.8603 55.108 94.3323 54.964 93.8603 54.676C93.3883 54.388 93.0163 53.984 92.7443 53.464C92.4723 52.944 92.3363 52.352 92.3363 51.688ZM97.9043 51.7C97.9043 51.204 97.8043 50.772 97.6043 50.404C97.4043 50.036 97.1323 49.756 96.7883 49.564C96.4523 49.364 96.0803 49.264 95.6723 49.264C95.2643 49.264 94.8923 49.36 94.5563 49.552C94.2203 49.744 93.9523 50.024 93.7523 50.392C93.5523 50.76 93.4523 51.192 93.4523 51.688C93.4523 52.192 93.5523 52.632 93.7523 53.008C93.9523 53.376 94.2203 53.66 94.5563 53.86C94.8923 54.052 95.2643 54.148 95.6723 54.148C96.0803 54.148 96.4523 54.052 96.7883 53.86C97.1323 53.66 97.4043 53.376 97.6043 53.008C97.8043 52.632 97.9043 52.196 97.9043 51.7ZM102.186 49.324V53.2C102.186 53.52 102.254 53.748 102.39 53.884C102.526 54.012 102.762 54.076 103.098 54.076H103.902V55H102.918C102.31 55 101.854 54.86 101.55 54.58C101.246 54.3 101.094 53.84 101.094 53.2V49.324H100.242V48.424H101.094V46.768H102.186V48.424H103.902V49.324H102.186ZM111.028 46.636C111.94 46.636 112.728 46.808 113.392 47.152C114.064 47.488 114.576 47.972 114.928 48.604C115.288 49.236 115.468 49.98 115.468 50.836C115.468 51.692 115.288 52.436 114.928 53.068C114.576 53.692 114.064 54.172 113.392 54.508C112.728 54.836 111.94 55 111.028 55H108.424V46.636H111.028ZM111.028 54.1C112.108 54.1 112.932 53.816 113.5 53.248C114.068 52.672 114.352 51.868 114.352 50.836C114.352 49.796 114.064 48.984 113.488 48.4C112.92 47.816 112.1 47.524 111.028 47.524H109.516V54.1H111.028ZM116.5 51.688C116.5 51.016 116.636 50.428 116.908 49.924C117.18 49.412 117.552 49.016 118.024 48.736C118.504 48.456 119.036 48.316 119.62 48.316C120.196 48.316 120.696 48.44 121.12 48.688C121.544 48.936 121.86 49.248 122.068 49.624V48.424H123.172V55H122.068V53.776C121.852 54.16 121.528 54.48 121.096 54.736C120.672 54.984 120.176 55.108 119.608 55.108C119.024 55.108 118.496 54.964 118.024 54.676C117.552 54.388 117.18 53.984 116.908 53.464C116.636 52.944 116.5 52.352 116.5 51.688ZM122.068 51.7C122.068 51.204 121.968 50.772 121.768 50.404C121.568 50.036 121.296 49.756 120.952 49.564C120.616 49.364 120.244 49.264 119.836 49.264C119.428 49.264 119.056 49.36 118.72 49.552C118.384 49.744 118.116 50.024 117.916 50.392C117.716 50.76 117.616 51.192 117.616 51.688C117.616 52.192 117.716 52.632 117.916 53.008C118.116 53.376 118.384 53.66 118.72 53.86C119.056 54.052 119.428 54.148 119.836 54.148C120.244 54.148 120.616 54.052 120.952 53.86C121.296 53.66 121.568 53.376 121.768 53.008C121.968 52.632 122.068 52.196 122.068 51.7ZM128.222 48.304C129.022 48.304 129.67 48.548 130.166 49.036C130.662 49.516 130.91 50.212 130.91 51.124V55H129.83V51.28C129.83 50.624 129.666 50.124 129.338 49.78C129.01 49.428 128.562 49.252 127.994 49.252C127.418 49.252 126.958 49.432 126.614 49.792C126.278 50.152 126.11 50.676 126.11 51.364V55H125.018V48.424H126.11V49.36C126.326 49.024 126.618 48.764 126.986 48.58C127.362 48.396 127.774 48.304 128.222 48.304ZM140.837 53.14H137.189L136.517 55H135.365L138.389 46.684H139.649L142.661 55H141.509L140.837 53.14ZM140.525 52.252L139.013 48.028L137.501 52.252H140.525ZM151.887 48.304C152.399 48.304 152.855 48.412 153.255 48.628C153.655 48.836 153.971 49.152 154.203 49.576C154.435 50 154.551 50.516 154.551 51.124V55H153.471V51.28C153.471 50.624 153.307 50.124 152.979 49.78C152.659 49.428 152.223 49.252 151.671 49.252C151.103 49.252 150.651 49.436 150.315 49.804C149.979 50.164 149.811 50.688 149.811 51.376V55H148.731V51.28C148.731 50.624 148.567 50.124 148.239 49.78C147.919 49.428 147.483 49.252 146.931 49.252C146.363 49.252 145.911 49.436 145.575 49.804C145.239 50.164 145.071 50.688 145.071 51.376V55H143.979V48.424H145.071V49.372C145.287 49.028 145.575 48.764 145.935 48.58C146.303 48.396 146.707 48.304 147.147 48.304C147.699 48.304 148.187 48.428 148.611 48.676C149.035 48.924 149.351 49.288 149.559 49.768C149.743 49.304 150.047 48.944 150.471 48.688C150.895 48.432 151.367 48.304 151.887 48.304ZM155.934 51.688C155.934 51.016 156.07 50.428 156.342 49.924C156.614 49.412 156.986 49.016 157.458 48.736C157.938 48.456 158.47 48.316 159.054 48.316C159.63 48.316 160.13 48.44 160.554 48.688C160.978 48.936 161.294 49.248 161.502 49.624V48.424H162.606V55H161.502V53.776C161.286 54.16 160.962 54.48 160.53 54.736C160.106 54.984 159.61 55.108 159.042 55.108C158.458 55.108 157.93 54.964 157.458 54.676C156.986 54.388 156.614 53.984 156.342 53.464C156.07 52.944 155.934 52.352 155.934 51.688ZM161.502 51.7C161.502 51.204 161.402 50.772 161.202 50.404C161.002 50.036 160.73 49.756 160.386 49.564C160.05 49.364 159.678 49.264 159.27 49.264C158.862 49.264 158.49 49.36 158.154 49.552C157.818 49.744 157.55 50.024 157.35 50.392C157.15 50.76 157.05 51.192 157.05 51.688C157.05 52.192 157.15 52.632 157.35 53.008C157.55 53.376 157.818 53.66 158.154 53.86C158.49 54.052 158.862 54.148 159.27 54.148C159.678 54.148 160.05 54.052 160.386 53.86C160.73 53.66 161.002 53.376 161.202 53.008C161.402 52.632 161.502 52.196 161.502 51.7ZM167.655 48.304C168.455 48.304 169.103 48.548 169.599 49.036C170.095 49.516 170.343 50.212 170.343 51.124V55H169.263V51.28C169.263 50.624 169.099 50.124 168.771 49.78C168.443 49.428 167.995 49.252 167.427 49.252C166.851 49.252 166.391 49.432 166.047 49.792C165.711 50.152 165.543 50.676 165.543 51.364V55H164.451V48.424H165.543V49.36C165.759 49.024 166.051 48.764 166.419 48.58C166.795 48.396 167.207 48.304 167.655 48.304Z" fill="black"/>
</svg>
